<svg width="630" height="431" viewBox="0 0 630 431" fill="none" xmlns="http://www.w3.org/2000/svg">
<rect width="630" height="431" fill="#373737"/>
<g id="Lo&#225;&#186;&#161;i ung th&#198;&#176;">
<path d="M-6412 -5439.37C-6412 -5440.48 -6411.1 -5441.37 -6410 -5441.37H3510C3511.1 -5441.37 3512 -5440.48 3512 -5439.37V14082.6C3512 14083.7 3511.1 14084.6 3510 14084.6H-6410C-6411.1 14084.6 -6412 14083.7 -6412 14082.6V-5439.37Z" fill="#444444"/>
<path d="M-6410 -5441.37V-5440.37H3510V-5441.37V-5442.37H-6410V-5441.37ZM3512 -5439.37H3511V14082.6H3512H3513V-5439.37H3512ZM3510 14084.6V14083.6H-6410V14084.6V14085.6H3510V14084.6ZM-6412 14082.6H-6411V-5439.37H-6412H-6413V14082.6H-6412ZM-6410 14084.6V14083.6C-6410.55 14083.6 -6411 14083.2 -6411 14082.6H-6412H-6413C-6413 14084.3 -6411.66 14085.6 -6410 14085.6V14084.6ZM3512 14082.6H3511C3511 14083.2 3510.55 14083.6 3510 14083.6V14084.6V14085.6C3511.66 14085.6 3513 14084.3 3513 14082.6H3512ZM3510 -5441.37V-5440.37C3510.55 -5440.37 3511 -5439.92 3511 -5439.37H3512H3513C3513 -5441.03 3511.66 -5442.37 3510 -5442.37V-5441.37ZM-6410 -5441.37V-5442.37C-6411.66 -5442.37 -6413 -5441.03 -6413 -5439.37H-6412H-6411C-6411 -5439.92 -6410.55 -5440.37 -6410 -5440.37V-5441.37Z" fill="white" fill-opacity="0.1"/>
<g id="Mega 2">
<rect width="1440" height="14468.3" transform="translate(-405 -4783.37)" fill="white"/>
<g id="M&#225;&#186;&#161;ng l&#198;&#176;&#225;&#187;&#155;i">
<rect width="1440" height="13864.3" transform="translate(-405 -4717.37)" fill="#F4F6FA"/>
<g id="Frame 303">
<g id="Layer_6" clip-path="url(#clip0_243_212)">
<path id="Vector" d="M363.942 412.278L40.1388 413.992C6.88495 289.305 88.5093 273.982 72.3314 190.912C33.2948 -9.58512 337.573 1.83534 397.318 119.534C442.927 209.361 497.393 165.148 575.589 219.354C658.56 276.878 617.618 381.593 577.385 414.658L363.928 412.278H363.942Z" fill="#C3BAF2"/>
<g id="Group">
<path id="Vector_2" d="M448.179 341.323C554.308 249.769 564.445 140.105 564.54 138.99L559.832 138.623C559.737 139.711 549.695 247.525 445.09 337.761L448.192 341.336L448.179 341.323Z" fill="#B2A6E6"/>
<path id="Vector_3" d="M544.525 198.445L549.192 197.629L543.532 165.23L538.892 166.033L544.525 198.445Z" fill="#B2A6E6"/>
<path id="Vector_4" d="M532.157 228.192L536.565 226.425L524.306 195.93L519.897 197.656L532.157 228.192Z" fill="#B2A6E6"/>
<path id="Vector_5" d="M514.537 260.346L518.959 258.605L506.672 228.069L502.305 229.823L514.537 260.346Z" fill="#B2A6E6"/>
<path id="Vector_6" d="M494.603 287.809L498.957 286.056L486.725 255.506L482.317 257.287L494.603 287.809Z" fill="#B2A6E6"/>
<path id="Vector_7" d="M472.928 315.001L477.309 313.234L465.05 282.725L460.669 284.492L472.928 315.001Z" fill="#B2A6E6"/>
<path id="Vector_8" d="M551.301 192.027L574.309 168.452L570.921 165.176L547.926 188.71L551.301 192.027Z" fill="#B2A6E6"/>
<path id="Vector_9" d="M538.701 223.937L565.737 205.175L563.057 201.286L535.98 220.048L538.701 223.937Z" fill="#B2A6E6"/>
<path id="Vector_10" d="M518.646 259.177L549.641 247.974L547.994 243.542L517.04 254.704L518.646 259.177Z" fill="#B2A6E6"/>
<path id="Vector_11" d="M494.44 293.765L525.993 284.166L524.591 279.666L493.093 289.237L494.44 293.765Z" fill="#B2A6E6"/>
<path id="Vector_12" d="M463.363 326.082L495.61 319.407L494.644 314.771L462.411 321.473L463.363 326.082Z" fill="#B2A6E6"/>
<path id="Vector_13" d="M554.689 128.97C551.437 134.422 553.206 141.478 558.635 144.7C564.05 147.95 571.125 146.182 574.364 140.744C577.602 135.306 575.806 128.263 570.404 125.014C564.975 121.778 557.927 123.559 554.689 128.97Z" fill="#B2A6E6"/>
<path id="Vector_14" d="M527.626 154.408C524.769 160.05 527 166.957 532.647 169.812C538.28 172.708 545.192 170.465 548.049 164.836C550.92 159.194 548.689 152.287 543.096 149.405C537.45 146.536 530.524 148.752 527.64 154.408H527.626Z" fill="#B2A6E6"/>
<path id="Vector_15" d="M511.053 183.122C506.454 187.486 506.332 194.76 510.754 199.315C515.149 203.869 522.401 204.005 526.973 199.6C531.504 195.182 531.626 187.949 527.245 183.394C522.85 178.812 515.598 178.717 511.053 183.108V183.122Z" fill="#B2A6E6"/>
<path id="Vector_16" d="M493.433 215.263C488.861 219.681 488.739 226.928 493.134 231.483C497.542 236.051 504.821 236.159 509.366 231.782C513.924 227.39 514.06 220.116 509.652 215.562C505.243 211.021 497.95 210.871 493.433 215.263Z" fill="#B2A6E6"/>
<path id="Vector_17" d="M473.459 242.712C468.914 247.145 468.751 254.378 473.16 258.919C477.554 263.473 484.834 263.623 489.392 259.245C493.936 254.826 494.1 247.607 489.691 243.025C485.256 238.47 478.017 238.362 473.459 242.712Z" fill="#B2A6E6"/>
<path id="Vector_18" d="M451.77 269.945C447.212 274.336 447.076 281.583 451.485 286.137C455.907 290.692 463.145 290.814 467.69 286.409C472.248 282.018 472.398 274.798 468.016 270.23C463.608 265.675 456.342 265.54 451.77 269.945Z" fill="#B2A6E6"/>
<path id="Vector_19" d="M590.147 165.244C589.358 171.484 583.589 175.93 577.33 175.128C571.044 174.312 566.581 168.561 567.411 162.293C568.214 156.026 573.969 151.593 580.255 152.396C586.514 153.211 590.936 158.949 590.147 165.244Z" fill="#B2A6E6"/>
<path id="Vector_20" d="M581.942 204.998C579.942 211.007 573.452 214.243 567.451 212.271C561.437 210.3 558.172 203.801 560.158 197.792C562.159 191.796 568.608 188.52 574.635 190.518C580.663 192.503 583.915 198.975 581.942 204.998Z" fill="#B2A6E6"/>
<path id="Vector_21" d="M565.302 251.971C561.832 257.273 554.73 258.755 549.45 255.302C544.158 251.821 542.661 244.751 546.13 239.449C549.573 234.133 556.703 232.651 562.009 236.132C567.302 239.585 568.771 246.682 565.302 251.971Z" fill="#B2A6E6"/>
<path id="Vector_22" d="M541.423 288.938C537.695 294.05 530.524 295.205 525.408 291.453C520.292 287.741 519.136 280.549 522.891 275.451C526.605 270.325 533.79 269.224 538.946 272.949C544.049 276.674 545.164 283.839 541.436 288.938H541.423Z" fill="#B2A6E6"/>
<path id="Vector_23" d="M510.563 325.565C506.359 330.31 499.148 330.773 494.358 326.612C489.61 322.425 489.147 315.165 493.338 310.433C497.528 305.675 504.74 305.226 509.516 309.4C514.264 313.587 514.74 320.82 510.563 325.565Z" fill="#B2A6E6"/>
</g>
<path id="Vector_24" d="M596.869 284.206C599.1 280.304 600.651 277.3 601.563 275.451C631.919 269.264 633.892 253.099 626.177 249.143C611.496 241.57 601.781 261.664 598.053 271.426L596.91 270.937C597.604 263.554 595.454 257.015 585.902 256.498C576.799 255.995 566.472 269.835 585.929 289.155C582.841 293.968 579.017 299.501 574.405 305.429C577.902 295.518 579.33 283.445 566.323 282.14C557.166 281.202 545.981 295.11 565.656 316.02C562.2 319.95 558.445 323.974 554.335 328.025C558.377 317.761 561.22 303.635 547.097 302.248C537.981 301.337 526.932 315.082 546.172 335.693C540.77 340.52 534.892 345.319 528.497 349.969C534.47 340.316 540.43 326.095 526.81 322.234C518.17 319.746 504.863 331.805 519.762 356.006C514.333 359.568 508.591 362.994 502.509 366.243C508.605 356.658 516.85 339.65 501.638 335.829C492.93 333.627 479.936 346.013 495.679 369.737C487.991 373.49 479.814 376.943 471.106 379.988C479.569 371.981 491.665 357.555 478.916 349.86C471.391 345.346 455.554 354.347 463.486 382.477C459.867 383.591 456.166 384.652 452.383 385.617L454.07 392.211C463.214 389.873 471.854 387.085 480.031 383.958C493.202 408.866 510.02 403.21 512.265 394.427C515.489 381.538 502.781 378.969 491.978 378.996C497.815 376.372 503.366 373.571 508.686 370.635C525.844 393.244 542.008 385.4 542.92 376.549C544.253 363.184 530.171 362.817 519.109 364.516C524.823 360.941 530.198 357.229 535.259 353.422C555.057 373.898 570.486 364.571 570.364 355.788C570.2 342.043 554.907 343.688 543.831 346.679C548.607 342.736 553.056 338.739 557.179 334.742C582.405 350.418 595.835 338.127 593.603 329.766C590.134 316.931 575.48 321.554 565.112 326.72C569.289 322.288 573.085 317.924 576.514 313.709C601.849 329.521 615.319 317.19 613.074 308.828C609.237 294.621 591.726 301.786 581.466 307.414C586.011 301.432 589.766 295.885 592.773 291.099C617.51 306.109 630.681 293.968 628.449 285.661C624.599 271.494 607.142 278.632 596.896 284.261L596.869 284.206Z" fill="url(#paint0_linear_243_212)"/>
<g id="Group_2">
<path id="Vector_25" d="M210.884 369.193C210.884 369.193 47.7038 403.169 0 268.122C0 268.122 137.301 214.663 210.884 369.193Z" fill="#B2A6E6"/>
<path id="Vector_26" d="M0 268.122C0 268.122 162.881 324.436 210.884 369.193C210.884 369.193 149.275 209.157 0 268.122Z" fill="#9F93DB"/>
</g>
<path id="Vector_27" d="M194.203 305.063C193.781 304.886 179.468 299.189 160.446 287.429C167.113 276.24 182.325 242.821 149.561 211.415C149.561 211.415 133.437 231.319 154.663 283.758C144.989 277.436 134.417 269.673 123.995 260.387C133.492 250.788 155.017 222.835 131.832 184.128C131.832 184.128 111.463 199.016 118.77 255.588C108.347 245.704 98.265 234.269 89.5977 221.218C100.51 213.4 126.09 189.662 109.626 147.243C109.626 147.243 87.5568 158.133 85.2573 214.311C78.8488 203.57 73.4334 191.823 69.5828 179.016C80.672 172.898 109.871 152.069 97.4214 107.054C97.4214 107.054 75.0118 115.266 66.9704 169.186C64.6846 159.207 63.3239 148.643 63.1334 137.481H63.0654C71.6374 106.347 47.8944 81.3984 47.8944 81.3984C32.2335 113.444 49.1053 134.449 56.9154 141.872C57.3508 152.368 58.8066 162.674 61.2422 172.749C28.8591 129.473 5.29297 134.843 5.29297 134.843C15.7018 181.735 52.1259 182.47 63.6369 181.477C66.9568 192.408 71.4469 203.04 77.1071 213.305C42.2341 177.371 20.5048 184.849 20.5048 184.849C35.7711 231.197 73.4062 226.86 83.9375 224.644C89.8291 233.671 96.673 242.373 104.415 250.72C68.0725 226.914 49.7993 237.097 49.7993 237.097C72.2633 279.516 108.388 268.979 118.756 264.833C120.879 266.736 123.028 268.64 125.26 270.502C131.165 275.451 137.057 279.924 142.744 283.921C99.0814 269.197 83.0259 284.71 83.0259 284.71C114.729 318.577 146.513 300.046 156.282 292.867C176.039 305.117 190.992 310.99 191.904 311.358L194.203 305.063Z" fill="url(#paint1_linear_243_212)"/>
<g id="Group_3">
<path id="Vector_28" d="M156.568 223.773L162.541 220.524C110.783 125.598 148.431 37.8507 148.812 36.9534L142.567 34.207C142.2 35.1044 103.136 125.802 156.554 223.773H156.568Z" fill="#B2A6E6"/>
<path id="Vector_29" d="M144.595 40.8147C144.595 40.8147 164.474 7.69534 144.227 0.421596C135.642 -2.67824 124.403 11.3254 144.595 40.8147Z" fill="#B2A6E6"/>
<path id="Vector_30" d="M140.241 54.4372C140.241 54.4372 134.635 13.7994 115.967 23.6019C108.021 27.803 108.415 47.2042 140.241 54.4372Z" fill="#B2A6E6"/>
<path id="Vector_31" d="M137.179 56.7215C137.179 56.7215 150.01 19.1971 166.31 34.9002C173.25 41.5758 169.358 60.27 137.179 56.7215Z" fill="#B2A6E6"/>
<path id="Vector_32" d="M132.73 90.1398C132.73 90.1398 143.901 51.8133 160.827 66.6871C168.025 73.0091 164.936 91.9073 132.73 90.1398Z" fill="#B2A6E6"/>
<path id="Vector_33" d="M131.002 117.781C131.002 117.781 142.295 79.5492 159.181 94.4502C166.406 100.786 163.249 119.684 131.002 117.781Z" fill="#B2A6E6"/>
<path id="Vector_34" d="M134.54 151.715C134.54 151.715 139.519 111.499 158.323 122.892C166.365 127.732 166.256 147.093 134.54 151.715Z" fill="#B2A6E6"/>
<path id="Vector_35" d="M140.935 178.554C140.935 178.554 146.949 138.555 165.521 150.56C173.386 155.658 172.814 174.978 140.935 178.554Z" fill="#B2A6E6"/>
<path id="Vector_36" d="M154.255 211.728C154.255 211.728 150.2 170.9 170.705 176.746C179.44 179.261 183.631 198.254 154.255 211.728Z" fill="#B2A6E6"/>
<path id="Vector_37" d="M133.778 81.4662C133.778 81.4662 128.131 40.7876 109.463 50.631C101.544 54.8185 101.939 74.1789 133.778 81.4662Z" fill="#B2A6E6"/>
<path id="Vector_38" d="M131.682 109.977C131.682 109.977 126.022 69.2983 107.368 79.128C99.4352 83.3291 99.8298 102.717 131.682 109.977Z" fill="#B2A6E6"/>
<path id="Vector_39" d="M133.696 137.929C133.696 137.929 120.076 99.3716 104.102 113.851C97.2717 120.01 101.585 139.003 133.696 137.929Z" fill="#B2A6E6"/>
<path id="Vector_40" d="M139.084 168.629C139.084 168.629 122.049 131.689 107.558 148.085C101.422 155.074 107.408 173.509 139.084 168.629Z" fill="#B2A6E6"/>
<path id="Vector_41" d="M148.935 197.968C148.935 197.968 127.492 163.992 115.314 182.686C110.171 190.667 118.416 208.042 148.935 197.968Z" fill="#B2A6E6"/>
</g>
<path id="Vector_42" d="M587.208 411.68C587.208 420.926 518.863 431 320.157 431C121.45 431 40.125 423.74 40.125 414.495C40.125 405.25 121.436 397.514 320.157 397.514C518.877 397.514 587.208 402.422 587.208 411.68Z" fill="#A79EE2"/>
<g id="Group_4">
<g id="Group_5">
<g id="Group_6">
<path id="Vector_43" d="M303.911 101.33H453.676L515.109 165.407V394.809C515.109 405.019 506.822 413.326 496.577 413.326H303.911C293.666 413.326 285.379 405.033 285.379 394.809V119.848C285.379 109.624 293.666 101.33 303.911 101.33Z" fill="white"/>
<path id="Vector_44" d="M453.662 101.33L515.095 165.407V167.215H470.63C460.398 167.215 452.098 158.922 452.098 148.698V101.316H453.649L453.662 101.33Z" fill="#A4A3EA"/>
</g>
<g id="Group_7">
<path id="Vector_45" d="M493.433 188.928H337.736V201.504H493.433V188.928Z" fill="#A4A3EA"/>
<path id="Vector_46" d="M493.433 215.263H337.736V227.825H493.433V215.263Z" fill="#A4A3EA"/>
<path id="Vector_47" d="M493.433 241.598H337.736V254.174H493.433V241.598Z" fill="#A4A3EA"/>
<path id="Vector_48" d="M493.433 267.946H337.736V280.522H493.433V267.946Z" fill="#A4A3EA"/>
<path id="Vector_49" d="M493.433 294.281H337.736V306.844H493.433V294.281Z" fill="#A4A3EA"/>
<path id="Vector_50" d="M493.433 320.616H337.736V333.192H493.433V320.616Z" fill="#A4A3EA"/>
</g>
</g>
<g id="Group_8">
<path id="Vector_51" d="M269.46 126.876H401.605L455.826 183.421V385.821C455.826 394.835 448.506 402.15 439.471 402.15H269.474C260.453 402.15 253.132 394.835 253.132 385.821V143.205C253.132 134.191 260.453 126.876 269.474 126.876H269.46Z" fill="#CAC9FC"/>
<path id="Vector_52" d="M401.605 126.876L455.826 183.421V185.025H416.585C407.551 185.025 400.244 177.711 400.244 168.683V126.876H401.605Z" fill="#A4A3EA"/>
</g>
<path id="Vector_53" d="M154.187 364.123C154.187 373.3 161.276 380.737 170.011 380.737H315.68C324.429 380.737 331.518 373.314 331.518 364.123V117.387C331.518 108.196 324.416 100.772 315.68 100.772H170.011C161.262 100.772 154.187 108.196 154.187 117.387V364.123Z" fill="#CAC9FC"/>
<path id="Vector_54" d="M168.596 351.887C168.596 361.648 176.529 369.575 186.312 369.575H349.275C359.058 369.575 366.99 361.662 366.99 351.887V89.3249C366.99 79.5767 359.071 71.6504 349.275 71.6504H186.312C176.529 71.6504 168.596 79.5631 168.596 89.3249V351.887Z" fill="white"/>
<path id="Vector_55" opacity="0.92" d="M198.53 83.4378H297.87C304.319 72.8195 311.354 65.165 318.225 65.165H404.68C413.864 65.165 421.32 72.5883 421.32 81.7655V399.73C421.32 408.907 413.878 416.344 404.68 416.344H198.53C189.332 416.344 181.903 408.907 181.903 399.73V100.052C181.903 90.8747 189.332 83.4378 198.53 83.4378Z" fill="#9565F8"/>
<path id="Vector_56" opacity="0.92" d="M421.306 81.7788V399.743C421.306 408.54 414.449 415.664 405.795 416.249V65.2871C414.449 65.8581 421.306 72.9823 421.306 81.7788Z" fill="#7147E0"/>
</g>
<g id="Group_9">
<path id="Vector_57" d="M380.161 390.185C380.161 406.527 366.908 419.783 350.567 419.783H196.557C180.202 419.783 166.936 406.527 166.936 390.185V79.4535C166.936 63.1114 180.202 49.8555 196.557 49.8555H350.567C366.908 49.8555 380.161 63.1114 380.161 79.4535V390.185Z" fill="#404065"/>
<path id="Vector_58" d="M364.949 95.2243C364.949 81.2206 353.588 69.8682 339.56 69.8682H207.551C193.537 69.8682 182.175 81.2206 182.175 95.2243V361.579C182.175 361.974 182.271 362.354 182.284 362.749H364.827C364.827 362.354 364.949 361.974 364.949 361.579V95.2243Z" fill="#E1CEFF"/>
<path id="Vector_59" d="M292.128 393C292.128 402.068 284.767 409.41 275.691 409.41C266.616 409.41 259.255 402.055 259.255 393C259.255 383.945 266.616 376.576 275.691 376.576C284.767 376.576 292.128 383.931 292.128 393Z" fill="white"/>
</g>
<g id="Group_10">
<path id="Vector_60" d="M444.967 239.177C446.94 238.47 453.281 238.429 456.193 243.595C460.125 250.515 460.438 266.735 469.989 272.282C479.527 277.843 486.031 274.186 490.698 272.282C495.379 270.365 496.345 267.429 499.189 266.626C502.032 265.824 502.849 269.21 496.1 274.05C492.862 276.375 478.262 289.698 465.676 285.144C449.158 279.216 433.252 243.486 444.981 239.163L444.967 239.177Z" fill="#E28C71"/>
<path id="Vector_61" d="M462.016 262.466L471.105 370.457C471.105 370.457 443.797 381.524 432.382 371.762C420.966 362.001 441.593 292.064 441.593 292.064L462.016 262.466Z" fill="#EBF2F2"/>
<path id="Vector_62" d="M439.58 211.727C446.492 217.233 451.607 228.558 470.806 228.409C490.005 228.246 462.397 256.96 443.934 256.43C425.47 255.899 405.999 252.188 410.911 225.907C414.775 205.323 432.79 206.356 439.58 211.74V211.727Z" fill="#353A66"/>
<path id="Vector_63" d="M439.43 218.511C439.43 218.511 448.315 233.752 454.179 234.853C460.07 235.954 415.088 252.188 415.088 252.188L425.973 225.458L439.43 218.524V218.511Z" fill="#353A66"/>
<g id="Group_11">
<path id="Vector_64" d="M463.432 345.958C465.255 344.898 474.711 342.532 472.779 351.546C470.874 360.56 451.145 378.847 448.097 379.703C445.05 380.56 443.893 375.774 443.893 375.774C443.893 375.774 452.451 352.267 463.432 345.972V345.958Z" fill="#E67052"/>
<path id="Vector_65" d="M444.219 374.985C444.219 374.985 442.9 377.745 442.75 379.649C442.587 381.974 453.104 386.8 452.043 383.564C451.186 380.886 447.594 379.241 448.329 378.439C449.063 377.65 444.219 374.985 444.219 374.985Z" fill="#E67052"/>
</g>
<g id="Group_12">
<path id="Vector_66" d="M422.367 387.928C422.599 386.011 426.381 378.071 433.076 385.399C439.743 392.714 443.416 418.138 442.287 420.775C441.144 423.399 436.246 420.966 436.246 420.966C436.246 420.966 421.075 399.498 422.381 387.928H422.367Z" fill="#E67052"/>
<path id="Vector_67" d="M435.769 420.245C435.769 420.245 437.348 422.964 438.912 424.337C440.858 426.009 451.594 422.175 448.097 420.721C445.226 419.524 441.552 420.816 441.321 419.783C441.09 418.776 435.756 420.245 435.756 420.245H435.769Z" fill="#E67052"/>
</g>
<path id="Vector_68" d="M452.723 287.102L470.18 302.397C470.18 302.397 491.555 322.165 492.562 326.747C493.583 331.315 455.88 378.669 455.88 378.669L443.865 367.534L456.614 337.12L440.437 323.239L452.723 287.102Z" fill="#FDA6D1"/>
<path id="Vector_69" d="M421.306 288.148C421.306 288.148 398.203 307.196 406.108 345.985C413.823 383.917 431.144 415.201 431.144 415.201L444.246 414.78C444.246 414.78 435.838 382.435 436.423 364.421C436.981 346.406 452.737 287.102 452.737 287.102C452.737 287.102 450.478 291.779 421.32 288.135L421.306 288.148Z" fill="#FDA6D1"/>
<path id="Vector_70" d="M455.825 246.382C452.995 232.664 434.368 234.758 420.748 240.128C412.135 243.541 398.216 249.577 408.652 267.184C415.945 279.461 420.054 285.919 413.401 300.534C412.516 302.451 413.986 298.196 413.401 300.534C422.626 303.852 427.66 299.243 438.246 299.011C446.11 298.835 451.24 295.898 458.329 293.75C455.118 283.92 455.404 293.682 455.186 293.111C448.138 275.355 458.193 257.993 455.812 246.396L455.825 246.382Z" fill="#EE9D7F"/>
<path id="Vector_71" d="M459.717 293.193C455.431 281.772 454.016 279.964 457.472 273.058C465.173 257.613 443.675 236.254 443.675 236.254L438.287 236.05C452.764 251.44 450.315 257.953 445.729 259.054C430.477 262.711 420.149 240.414 420.149 240.414L415.142 242.589C415.142 242.589 423.932 248.939 425.306 262.738C426.966 279.448 414.149 278.034 414.149 278.034C415.319 283.581 417.768 284.668 415.142 294.607C415.115 294.675 410.625 302.696 410.625 302.696C425.157 308.121 459.921 302.846 459.703 293.206L459.717 293.193Z" fill="#9696EA"/>
<path id="Vector_72" d="M425.987 225.445C425.987 225.445 428.354 234.35 425.456 238.633C423.633 241.366 438.831 247.756 438.464 244.126C437.96 239.449 435.225 236.648 438.151 231.319L425.987 225.432V225.445Z" fill="#E67052"/>
<path id="Vector_73" d="M436.137 212.229C440.137 216.199 444.069 233.316 439.647 236.96C437.715 238.524 430.055 236.457 425.374 228.871C423.442 225.744 421.129 219.938 424.408 214.228C425.878 211.658 431.511 207.607 436.123 212.243L436.137 212.229Z" fill="#EE9D7F"/>
<path id="Vector_74" d="M439.267 215.221C439.607 217.668 439.648 219.109 434.396 218.443C427.96 217.627 428.926 222.454 429.511 224.112C431.307 228.953 423.783 223.976 425.987 229.768C428.164 235.574 421.225 228.49 420.626 227.607C420.027 226.736 417.973 222.916 421.851 214.745C425.728 206.547 438.219 207.702 439.253 215.221H439.267Z" fill="#353A66"/>
<path id="Vector_75" d="M420.163 240.4C420.163 240.4 440.777 256.607 435.77 281.976C430.749 307.346 425.32 381.185 425.32 381.185C425.32 381.185 404.706 384.081 395.264 374.985C395.264 374.985 399.822 323.933 406.666 307.02C413.496 290.107 410.095 273.52 404.951 263.432C399.822 253.344 409.278 240.781 420.177 240.4H420.163Z" fill="#EBF2F2"/>
<path id="Vector_76" d="M441.593 236.009C441.593 236.009 458.343 245.213 455.581 278.727C454.084 296.945 478.589 240.4 441.593 236.009Z" fill="#EBF2F2"/>
<path id="Vector_77" d="M413.455 244.139C415.523 244.493 421.007 247.606 420.952 253.466C420.857 261.311 412.965 275.205 418.435 284.682C423.891 294.158 431.347 294.267 436.327 294.987C441.348 295.681 443.661 293.669 446.532 294.403C449.389 295.123 448.383 298.413 440.11 299.175C436.164 299.515 416.843 303.58 408.244 293.465C396.951 280.181 401.169 241.95 413.469 244.139H413.455Z" fill="#E28C71"/>
<path id="Vector_78" d="M408.924 244.057C408.924 244.057 421.306 239.041 422.776 254.662C422.776 254.662 424.231 265.403 422.776 273.533C421.306 281.663 399.822 273.248 397.536 270.46C395.264 267.673 401.128 247.157 408.938 244.057H408.924Z" fill="#E0E2E2"/>
</g>
<g id="Group_13">
<g id="Group_14">
<path id="Vector_79" d="M278.521 228.749C278.521 228.749 291.638 209.756 316.973 228.749C338.199 244.656 415.278 321.037 398.393 415.664C398.393 415.664 397.182 424.705 379.086 424.705C360.989 424.705 361.37 415.066 336.756 411.449C312.129 407.833 267.867 404.842 266.888 355.394C265.935 305.96 264.044 245.023 278.521 228.749Z" fill="#F5A4B7"/>
<path id="Vector_80" d="M237.335 175.78H262.67V263.174C262.67 263.174 263.881 285.471 284.386 292.106C304.89 298.741 335.069 298.741 345.315 333.097C355.56 367.454 368.84 389.751 379.072 393.965C379.072 393.965 353.791 385.386 337.478 329.861C333.899 317.679 321.98 303.553 284.386 309.59C273.569 311.317 256.044 313.206 250.002 282.466L237.335 175.794V175.78Z" fill="#FEEEEE"/>
<path id="Vector_81" d="M314.769 227.268C293.352 211.592 279.487 227.268 279.487 227.268C276.807 230.259 273.569 235.833 272.208 241.503C273.569 255.737 280.127 269.32 295.475 271.087C326.239 274.649 358.595 278.007 365.833 298.795C371.629 315.45 383.63 353.042 395.209 346.503C376.99 279.666 330.253 238.593 314.782 227.268H314.769Z" fill="#F9C0CF"/>
<path id="Vector_82" d="M336.756 411.436C361.37 415.053 361.003 424.692 379.085 424.692C382.623 424.692 385.48 424.339 387.848 423.795C320.823 409.084 320.85 380.302 304.305 360.289C294.372 348.27 278.399 346.53 266.684 347.183C266.779 349.943 266.847 352.675 266.901 355.381C267.881 404.815 312.142 407.82 336.77 411.436H336.756Z" fill="#E887A0"/>
<path id="Vector_83" d="M307.136 302.425C307.136 302.425 283.828 292.854 291.448 277.722C302.673 255.398 297.067 235.534 297.067 235.534C297.067 235.534 304.237 257.342 298.496 269.999C292.767 282.657 288.291 288.626 312.428 299.747L307.122 302.425H307.136Z" fill="#FEEEEE"/>
<path id="Vector_84" d="M295.774 273.398C295.774 273.398 307.666 270.951 308.115 263.215C308.578 255.479 309.435 250.652 309.435 250.652C309.435 250.652 309.707 257.926 309.435 263.84C309.217 268.517 303.516 277.259 293.72 277.722L295.774 273.398Z" fill="#FEEEEE"/>
<path id="Vector_85" d="M298.305 263.581C298.305 263.581 288.331 255.805 290.944 248.517C293.57 241.23 294.658 237.301 294.658 237.301C294.658 237.301 291.556 243.895 289.488 249.442C287.842 253.833 289.651 264.112 298.495 268.367L298.305 263.581Z" fill="#FEEEEE"/>
<path id="Vector_86" d="M313.408 304.695C313.408 304.695 331.355 320.643 320.333 325.239C304.101 332.009 303.489 345.265 303.489 345.265C303.489 345.265 303.271 330.242 311.925 326.109C320.565 321.976 326.211 320.847 307.965 303.676L313.421 304.695H313.408Z" fill="#FEEEEE"/>
<path id="Vector_87" d="M316.102 311.997C316.102 311.997 304.047 313.465 302.958 321.133C301.87 328.801 300.618 333.546 300.618 333.546C300.618 333.546 300.945 326.272 301.693 320.399C302.292 315.749 308.714 307.51 318.51 307.864L316.102 311.997Z" fill="#FEEEEE"/>
<path id="Vector_88" d="M320.769 320.779C320.769 320.779 330.062 329.358 326.851 336.401C323.654 343.457 322.211 347.264 322.211 347.264C322.211 347.264 325.858 340.955 328.375 335.598C330.375 331.356 329.409 320.969 320.959 316.007L320.755 320.779H320.769Z" fill="#FEEEEE"/>
<path id="Vector_89" d="M347.506 292.228C347.506 292.228 344.716 285.621 348.036 282.725C351.343 279.829 352.975 278.197 352.975 278.197C352.975 278.197 349.615 280.604 347.057 282.779C345.029 284.506 343.097 290.094 346.295 294.648L347.519 292.228H347.506Z" fill="#FEEEEE"/>
<path id="Vector_90" d="M327.259 307.85C327.259 307.85 338.675 297.612 351.043 305.144C363.398 312.676 364.296 329.807 379.072 331.642C379.072 331.642 369.126 332.961 361.602 324.477C354.05 315.993 349.247 299.366 330.538 310.691L327.259 307.85Z" fill="#FEEEEE"/>
<path id="Vector_91" d="M339.586 303.676C339.586 303.676 336.865 295.492 342.906 293.384C348.934 291.277 353.179 290.991 358.594 280.727C358.594 280.727 355.274 291.277 348.798 294.893C342.321 298.51 342.294 297.925 342.593 302.425L339.586 303.676Z" fill="#FEEEEE"/>
<path id="Vector_92" d="M357.588 327.55C357.588 327.55 352.88 330.922 354.145 334.429C355.411 337.937 355.941 339.813 355.941 339.813C355.941 339.813 354.458 336.618 353.451 333.967C352.662 331.846 353.492 327.074 357.683 325.32L357.588 327.564V327.55Z" fill="#FEEEEE"/>
<path id="Vector_93" d="M356.39 316.007C356.39 316.007 351.098 320.521 354.676 324.695C358.241 328.855 361.234 330.949 361.071 340.561C361.071 340.561 362.894 331.696 359.588 326.272C356.282 320.847 356.05 321.241 358.078 318.223L356.39 316.02V316.007Z" fill="#FEEEEE"/>
<path id="Vector_94" d="M342.389 340.303C342.389 340.303 324.932 353.899 334.552 367.304C348.716 387.059 348.254 407.493 348.254 407.493C348.254 407.493 349.601 384.87 342.104 373.558C334.607 362.246 329.586 357.216 347.41 341.948L342.389 340.303Z" fill="#FEEEEE"/>
<path id="Vector_95" d="M339.097 370.73C339.097 370.73 349.56 370.962 351.587 378.426C353.615 385.903 355.37 390.458 355.37 390.458C355.37 390.458 354.036 383.293 352.567 377.569C351.397 373.042 344.743 365.537 336.457 366.883L339.097 370.73Z" fill="#FEEEEE"/>
<path id="Vector_96" d="M343.315 379.853C343.315 379.853 336.634 389.275 340.376 395.91C344.117 402.558 345.886 406.189 345.886 406.189C345.886 406.189 341.872 400.315 338.961 395.271C336.648 391.274 335.967 380.914 342.458 375.136L343.315 379.84V379.853Z" fill="#FEEEEE"/>
</g>
<g id="Group_15">
<path id="Vector_97" d="M223.606 228.002C223.606 228.002 210.49 209.022 185.155 228.002C163.929 243.909 86.8491 320.29 103.735 414.917C103.735 414.917 104.945 423.958 123.028 423.958C141.111 423.958 140.744 414.318 165.371 410.702C189.985 407.086 234.26 404.081 235.226 354.647C236.192 305.212 238.083 244.276 223.606 228.002Z" fill="#F5A4B7"/>
<path id="Vector_98" d="M264.779 175.032H239.458V262.426C239.458 262.426 238.247 284.723 217.742 291.358C197.224 297.993 167.058 297.992 156.813 332.349C146.554 366.706 133.288 389.003 123.042 393.217C123.042 393.217 148.336 384.638 164.65 329.113C168.215 316.945 180.134 302.819 217.742 308.842C228.559 310.582 246.084 312.458 252.125 281.718L264.779 175.032Z" fill="#FEEEEE"/>
<path id="Vector_99" d="M187.359 226.533C208.762 210.871 222.64 226.533 222.64 226.533C225.321 229.524 228.559 235.099 229.92 240.782C228.545 255.016 222.001 268.599 206.653 270.366C175.889 273.928 143.533 277.273 136.281 298.074C130.485 314.743 118.497 352.322 106.918 345.782C125.137 278.945 171.875 237.859 187.345 226.533H187.359Z" fill="#F9C0CF"/>
<path id="Vector_100" d="M165.371 410.702C140.744 414.318 141.125 423.958 123.028 423.958C119.504 423.958 116.633 423.604 114.279 423.061C181.29 408.35 181.277 379.568 197.822 359.555C207.755 347.536 223.729 345.796 235.43 346.448C235.348 349.208 235.28 351.955 235.212 354.647C234.246 404.081 189.971 407.085 165.357 410.702H165.371Z" fill="#E887A0"/>
<path id="Vector_101" d="M194.992 301.691C194.992 301.691 218.3 292.12 210.68 276.974C199.441 254.65 205.061 234.786 205.061 234.786C205.061 234.786 197.89 256.594 203.632 269.251C209.36 281.909 213.837 287.878 189.699 298.999L195.006 301.677L194.992 301.691Z" fill="#FEEEEE"/>
<path id="Vector_102" d="M206.34 272.65C206.34 272.65 194.448 270.203 193.999 262.467C193.55 254.731 192.693 249.904 192.693 249.904C192.693 249.904 192.421 257.178 192.693 263.106C192.91 267.783 198.611 276.525 208.394 276.987L206.34 272.664V272.65Z" fill="#FEEEEE"/>
<path id="Vector_103" d="M203.822 262.847C203.822 262.847 213.796 255.07 211.183 247.783C208.557 240.496 207.455 236.566 207.455 236.566C207.455 236.566 210.571 243.16 212.639 248.707C214.286 253.099 212.476 263.377 203.646 267.633L203.836 262.847H203.822Z" fill="#FEEEEE"/>
<path id="Vector_104" d="M188.719 303.961C188.719 303.961 170.773 319.909 181.794 324.491C198.026 331.261 198.638 344.531 198.638 344.531C198.638 344.531 198.856 329.507 190.203 325.361C181.576 321.228 175.93 320.099 194.176 302.928L188.719 303.947V303.961Z" fill="#FEEEEE"/>
<path id="Vector_105" d="M186.026 311.262C186.026 311.262 198.081 312.717 199.169 320.399C200.258 328.067 201.51 332.812 201.51 332.812C201.51 332.812 201.183 325.538 200.421 319.664C199.822 315.015 193.414 306.776 183.617 307.129L186.026 311.262Z" fill="#FEEEEE"/>
<path id="Vector_106" d="M181.359 320.045C181.359 320.045 172.066 328.61 175.263 335.666C178.474 342.709 179.903 346.529 179.903 346.529C179.903 346.529 176.27 340.221 173.739 334.864C171.739 330.622 172.705 320.235 181.141 315.272L181.359 320.045Z" fill="#FEEEEE"/>
<path id="Vector_107" d="M154.608 291.494C154.608 291.494 157.411 284.886 154.091 281.99C150.771 279.108 149.152 277.463 149.152 277.463C149.152 277.463 152.513 279.869 155.057 282.045C157.098 283.771 159.031 289.359 155.833 293.914L154.608 291.494Z" fill="#FEEEEE"/>
<path id="Vector_108" d="M174.868 307.101C174.868 307.101 163.453 296.864 151.085 304.396C138.716 311.928 137.832 329.059 123.042 330.894C123.042 330.894 132.988 332.213 140.526 323.729C148.064 315.245 152.881 298.618 171.589 309.943L174.868 307.101Z" fill="#FEEEEE"/>
<path id="Vector_109" d="M162.541 302.941C162.541 302.941 165.248 294.756 159.221 292.649C153.193 290.542 148.962 290.256 143.546 279.991C143.546 279.991 146.866 290.542 153.343 294.158C159.82 297.774 159.847 297.19 159.547 301.69L162.554 302.941H162.541Z" fill="#FEEEEE"/>
<path id="Vector_110" d="M144.54 326.816C144.54 326.816 149.248 330.201 147.982 333.695C146.717 337.189 146.186 339.079 146.186 339.079C146.186 339.079 147.683 335.884 148.676 333.233C149.466 331.112 148.636 326.34 144.445 324.572L144.54 326.816Z" fill="#FEEEEE"/>
<path id="Vector_111" d="M145.737 315.259C145.737 315.259 151.03 319.773 147.452 323.946C143.887 328.107 140.88 330.201 141.043 339.813C141.043 339.813 139.233 330.948 142.526 325.524C145.819 320.099 146.064 320.493 144.036 317.475L145.724 315.259H145.737Z" fill="#FEEEEE"/>
<path id="Vector_112" d="M159.725 339.555C159.725 339.555 177.182 353.15 167.575 366.556C153.398 386.324 153.874 406.745 153.874 406.745C153.874 406.745 152.527 384.135 160.024 372.81C167.521 361.485 172.528 356.468 154.718 341.2L159.725 339.555Z" fill="#FEEEEE"/>
<path id="Vector_113" d="M163.017 369.995C163.017 369.995 152.554 370.213 150.527 377.69C148.499 385.168 146.744 389.723 146.744 389.723C146.744 389.723 148.064 382.558 149.547 376.834C150.717 372.293 157.371 364.802 165.643 366.148L163.017 369.995Z" fill="#FEEEEE"/>
<path id="Vector_114" d="M158.813 379.104C158.813 379.104 165.494 388.526 161.752 395.161C158.01 401.809 156.241 405.439 156.241 405.439C156.241 405.439 160.255 399.566 163.153 394.522C165.466 390.525 166.147 380.165 159.67 374.387L158.813 379.091V379.104Z" fill="#FEEEEE"/>
</g>
</g>
<g id="Group_16">
<g id="Group_17">
<path id="Vector_115" d="M324.498 118.651C324.498 127.23 331.45 134.177 340.022 134.177C348.622 134.177 355.574 127.216 355.574 118.651V37.7285C355.574 29.1496 348.622 22.2021 340.022 22.2021C331.45 22.2021 324.498 29.1632 324.498 37.7285V118.664V118.651Z" fill="white"/>
<path id="Vector_116" d="M355.574 40.1758H249.241V212.652H355.574V40.1758Z" fill="white"/>
<path id="Vector_117" d="M340.022 22.2021H233.688V43.4524H340.022V22.2021Z" fill="white"/>
<path id="Vector_118" d="M218.028 37.7285C218.028 29.1496 224.994 22.2021 233.566 22.2021C242.138 22.2021 249.118 29.1632 249.118 37.7285V50.5494C245.172 50.495 218.028 50.1551 218.028 50.1551V37.7285Z" fill="#C8A0F9"/>
<path id="Vector_119" d="M382.365 193.658H262.942V226.356H382.365V193.658Z" fill="#C8A0F9"/>
<path id="Vector_120" d="M249.241 210.817C249.241 219.396 256.194 226.357 264.779 226.357C273.351 226.357 280.331 219.396 280.331 210.817V129.895C280.331 121.316 273.351 114.368 264.779 114.368C256.194 114.368 249.241 121.329 249.241 129.895V210.817Z" fill="white"/>
<path id="Vector_121" d="M382.365 226.342C373.793 226.342 366.827 219.381 366.827 210.802V193.645H397.917V210.802C397.917 219.381 390.951 226.342 382.365 226.342Z" fill="#C8A0F9"/>
</g>
<g id="Group_18">
<path id="Vector_122" d="M340.036 56.2598H264.779V60.6376H340.036V56.2598Z" fill="#E2C4FF"/>
<path id="Vector_123" d="M340.036 67.2588H264.779V71.6502H340.036V67.2588Z" fill="#E2C4FF"/>
<path id="Vector_124" d="M340.036 78.2715H264.779V82.6629H340.036V78.2715Z" fill="#E2C4FF"/>
</g>
<g id="Group_19">
<path id="Vector_125" d="M340.036 100.364H264.779V104.756H340.036V100.364Z" fill="#E2C4FF"/>
<path id="Vector_126" d="M340.036 111.377H264.779V115.768H340.036V111.377Z" fill="#E2C4FF"/>
<path id="Vector_127" d="M340.036 122.376H264.779V126.767H340.036V122.376Z" fill="#E2C4FF"/>
</g>
<g id="Group_20">
<path id="Vector_128" d="M340.036 148.874H264.779V153.265H340.036V148.874Z" fill="#E2C4FF"/>
<path id="Vector_129" d="M340.036 159.887H264.779V164.278H340.036V159.887Z" fill="#E2C4FF"/>
<path id="Vector_130" d="M340.036 170.899H264.779V175.291H340.036V170.899Z" fill="#E2C4FF"/>
</g>
</g>
</g>
</g>
</g>
</g>
</g>
<defs>
<linearGradient id="paint0_linear_243_212" x1="452.383" y1="324.667" x2="630" y2="324.667" gradientUnits="userSpaceOnUse">
<stop stop-color="#EEEBF9" stop-opacity="0.7"/>
<stop offset="0.76" stop-color="#7147E0"/>
</linearGradient>
<linearGradient id="paint1_linear_243_212" x1="249.2" y1="361.132" x2="41.9657" y2="145.41" gradientUnits="userSpaceOnUse">
<stop stop-color="#EEEBF9" stop-opacity="0.7"/>
<stop offset="0.76" stop-color="#7147E0"/>
</linearGradient>
<clipPath id="clip0_243_212">
<rect width="630" height="431" fill="white"/>
</clipPath>
</defs>
</svg>
